<?xml version="1.0" encoding="utf-8"?>
<!-- Generator: Adobe Illustrator 23.1.0, SVG Export Plug-In . SVG Version: 6.00 Build 0)  -->
<svg version="1.1" id="Layer_1" xmlns="http://www.w3.org/2000/svg" xmlns:xlink="http://www.w3.org/1999/xlink" x="0px" y="0px"
	 viewBox="0 0 40 60" style="enable-background:new 0 0 40 60;" xml:space="preserve">
<style type="text/css">
	.st0{fill:#FFFFFF;}
	.st1{fill:none;stroke:#FFFFFF;stroke-width:3;stroke-miterlimit:10;}
	.st2{fill:none;stroke:#FFFFFF;stroke-width:0.5;stroke-miterlimit:10;}
</style>
<g>
	<g>
		<g>
			<path class="st0" d="M27.22,37.95c-0.06,4.28-2.69,8.25-6.77,9.72c-4.15,1.5-8.86,0.21-11.65-3.22c-2.71-3.33-3-8.14-0.81-11.81
				c2.17-3.63,6.54-5.68,10.73-4.88C23.63,28.7,27.15,32.96,27.22,37.95c0.03,2.41,3.78,2.42,3.75,0c-0.08-5.9-3.7-11.12-9.22-13.22
				c-5.47-2.08-12-0.33-15.7,4.2C2.31,33.5,1.7,40.05,4.75,45.16c3.05,5.1,8.99,7.67,14.8,6.63c6.62-1.19,11.33-7.22,11.42-13.84
				C31,35.54,27.25,35.54,27.22,37.95z"/>
		</g>
	</g>
	<line class="st1" x1="16.87" y1="31.41" x2="16.87" y2="44.49"/>
</g>
<path class="st1" d="M20.09,27.97"/>
<path class="st2" d="M-34.98,4.43"/>
<g>
	<g>
		<g>
			<path class="st0" d="M37.96,22.42c-0.37-4.83-4.93-8.65-8.8-10.93C24.93,9,18.5,6.62,13.77,9.14c-0.71,0.38-0.08,1.46,0.63,1.08
				c4.3-2.29,10.34,0.12,14.13,2.35c3.42,2.01,7.85,5.52,8.18,9.85C36.78,23.21,38.03,23.22,37.96,22.42L37.96,22.42z"/>
		</g>
	</g>
	<g>
		<g>
			<path class="st0" d="M34.45,22.26c-0.29-3.74-3.78-6.69-6.78-8.46c-3.28-1.93-8.22-3.74-11.88-1.79
				c-0.71,0.38-0.08,1.46,0.63,1.08c3.22-1.72,7.78,0.12,10.62,1.79c2.56,1.5,5.91,4.14,6.16,7.38
				C33.26,23.06,34.51,23.07,34.45,22.26L34.45,22.26z"/>
		</g>
	</g>
	<g>
		<g>
			<path class="st0" d="M30.85,21.89c-0.2-2.58-2.56-4.62-4.64-5.84c-2.26-1.33-5.64-2.54-8.17-1.2c-0.71,0.38-0.08,1.46,0.63,1.08
				c0.9-0.48,2.03-0.45,3.01-0.28c1.38,0.24,2.69,0.77,3.89,1.48c1.64,0.96,3.86,2.68,4.02,4.76
				C29.66,22.68,30.91,22.69,30.85,21.89L30.85,21.89z"/>
		</g>
	</g>
</g>
</svg>
