<svg id="Layer_1" data-name="Layer 1" xmlns="http://www.w3.org/2000/svg" viewBox="0 0 37.92 50.6"><defs><style>.cls-1,.cls-3{fill:none;stroke:#fff;stroke-miterlimit:10;}.cls-1{stroke-width:0.5px;}.cls-2{fill:#fff;}.cls-3{stroke-width:3px;}</style></defs><title>receiver</title><path class="cls-1" d="M-35,4.43" transform="translate(-1.09 -3.69)"/><path class="cls-2" d="M35.35,40.8c-.84,3.83-5.24,6.41-8.56,7.82C23,50.25,17,51.78,13.31,49.1a1.88,1.88,0,0,0-2.56.67,1.9,1.9,0,0,0,.67,2.56c4.71,3.41,12,1.77,16.88-.31,4.35-1.85,9.57-5.25,10.66-10.23.52-2.35-3.09-3.35-3.61-1Z" transform="translate(-1.09 -3.69)"/><path class="cls-2" d="M29.93,37.17c-.57,2.59-3.78,4.62-6.31,5.69-2.81,1.18-7.16,2.29-9.83.36a1.88,1.88,0,0,0-2.56.68,1.91,1.91,0,0,0,.67,2.56c3.73,2.69,9.46,1.41,13.31-.24,3.43-1.46,7.48-4.15,8.34-8.06.51-2.35-3.1-3.35-3.62-1Z" transform="translate(-1.09 -3.69)"/><path class="cls-2" d="M24.46,33.24c0,.1-.05.2-.08.31s-.12.32,0,.08-.05.09-.08.15-.09.16-.14.24l-.21.31c-.16.22.29-.3-.06.05-.17.18-.34.37-.52.55l-.33.29-.06.05c-.22.18-.47.34-.71.5a12.45,12.45,0,0,1-1.73.92,11.26,11.26,0,0,1-3.46.8c-.33,0-.66,0-1,0-.13,0-.26,0-.05,0l-.43-.08-.33-.09c-.16,0-.32-.12-.07,0a4,4,0,0,1-.63-.37A1.89,1.89,0,0,0,12,37.6a1.93,1.93,0,0,0,.67,2.57,7.08,7.08,0,0,0,4.19,1.07A14.12,14.12,0,0,0,22.21,40c2.44-1,5.26-3,5.87-5.77a1.93,1.93,0,0,0-1.31-2.31,1.9,1.9,0,0,0-2.31,1.31Z" transform="translate(-1.09 -3.69)"/><path class="cls-2" d="M29.26,17.78A14.3,14.3,0,0,0,20,4.56a14.15,14.15,0,0,0-15.7,4.2A14.25,14.25,0,0,0,3,25a14.27,14.27,0,0,0,14.8,6.63A14.24,14.24,0,0,0,29.26,17.78c0-2.41-3.72-2.41-3.75,0a10.35,10.35,0,0,1-18.42,6.5A10.36,10.36,0,0,1,17,7.59a10.49,10.49,0,0,1,8.51,10.19C25.54,20.2,29.29,20.2,29.26,17.78Z" transform="translate(-1.09 -3.69)"/><line class="cls-3" x1="16.68" y1="18.92" x2="16.68" y2="9.26"/><path class="cls-3" d="M12.55,13" transform="translate(-1.09 -3.69)"/><line class="cls-3" x1="11.45" y1="18.92" x2="11.45" y2="9.26"/></svg>