<svg id="Layer_1" data-name="Layer 1" xmlns="http://www.w3.org/2000/svg" viewBox="0 0 36.64 50.17"><defs><style>.cls-1,.cls-3{fill:none;stroke:#fff;stroke-miterlimit:10;}.cls-1{stroke-width:0.5px;}.cls-2{fill:#fff;}.cls-3{stroke-width:3px;}</style></defs><title>sender</title><path class="cls-1" d="M-35,4.43" transform="translate(-2.35 -5.15)"/><path class="cls-2" d="M31.21,44.93c-1.36-5.11-6.88-8.28-11.49-10-5.16-1.9-12.2-2.84-16.82.82a1.9,1.9,0,0,0,0,2.66,1.92,1.92,0,0,0,2.65,0C7,37.3,9.15,37.1,10.89,37.09a22.62,22.62,0,0,1,7.84,1.48c3.32,1.22,7.87,3.62,8.87,7.35.62,2.33,4.24,1.35,3.61-1Z" transform="translate(-2.35 -5.15)"/><path class="cls-2" d="M26,48.8c-1.08-4.06-5.41-6.57-9.07-7.91-4.11-1.52-9.59-2.16-13.25.74a1.88,1.88,0,0,0,0,2.65,1.91,1.91,0,0,0,2.65,0,6.9,6.9,0,0,1,3.76-.89A16.78,16.78,0,0,1,15.9,44.5a14.65,14.65,0,0,1,4.28,2.39,6.32,6.32,0,0,1,2.16,2.9c.63,2.33,4.24,1.34,3.62-1Z" transform="translate(-2.35 -5.15)"/><path class="cls-2" d="M20.67,53c-.79-2.94-3.85-4.75-6.51-5.73-3-1.11-6.83-1.44-9.48.65a1.91,1.91,0,0,0,0,2.66,1.94,1.94,0,0,0,2.66,0c-.2.15-.16.1,0,0l.27-.14c.22-.12-.4.1.07,0l.32-.1.35-.08s.48-.07.3-.05.2,0,.23,0l.5,0a10.41,10.41,0,0,1,3.76.72,9.54,9.54,0,0,1,1.39.66c.26.14.52.3.76.46l.28.19.16.13a7.41,7.41,0,0,1,.58.54c.09.09.18.2.27.3s-.15-.23,0,0,.23.37.35.55,0,.06,0-.08c0,.13.08.25.11.37a1.88,1.88,0,0,0,3.62-1Z" transform="translate(-2.35 -5.15)"/><path class="cls-2" d="M14.57,19.22a10.35,10.35,0,1,1,8.51,10.19,10.46,10.46,0,0,1-8.51-10.19c0-2.41-3.78-2.42-3.75,0A14.29,14.29,0,0,0,20,32.44,14.1,14.1,0,0,0,37,12a14.1,14.1,0,0,0-26.22,7.21C10.79,21.63,14.54,21.64,14.57,19.22Z" transform="translate(-2.35 -5.15)"/><line class="cls-3" x1="19.95" y1="18.9" x2="19.95" y2="9.24"/><path class="cls-3" d="M27.53,14.39" transform="translate(-2.35 -5.15)"/><line class="cls-3" x1="25.19" y1="18.9" x2="25.19" y2="9.24"/></svg>