<svg id="Layer_1" data-name="Layer 1" xmlns="http://www.w3.org/2000/svg" viewBox="0 0 38.68 50.6"><defs><style>.cls-1,.cls-3{fill:none;}.cls-1,.cls-3,.cls-4{stroke:#fff;stroke-miterlimit:10;}.cls-1{stroke-width:0.5px;}.cls-2,.cls-4{fill:#fff;}.cls-3{stroke-width:3px;}.cls-4{font-size:25.01px;font-family:MyriadPro-Regular, Myriad Pro;}</style></defs><title>smartreceiver</title><path class="cls-1" d="M-35,4.43" transform="translate(-1.11 -4.04)"/><path class="cls-2" d="M35.36,41.15C34.52,45,30.12,47.56,26.81,49c-3.83,1.63-9.76,3.16-13.48.48a1.87,1.87,0,1,0-1.89,3.23c4.71,3.41,12,1.77,16.87-.31,4.35-1.85,9.58-5.25,10.67-10.23.52-2.35-3.1-3.35-3.62-1Z" transform="translate(-1.11 -4.04)"/><path class="cls-2" d="M30,37.52c-.57,2.59-3.79,4.62-6.32,5.69-2.8,1.18-7.15,2.29-9.82.36a1.88,1.88,0,1,0-1.89,3.24c3.72,2.69,9.45,1.41,13.31-.24,3.42-1.46,7.47-4.15,8.33-8.06.52-2.35-3.1-3.35-3.61-1Z" transform="translate(-1.11 -4.04)"/><path class="cls-2" d="M24.48,33.59a2.81,2.81,0,0,0-.08.31c0,.05-.12.32,0,.08s-.05.09-.08.15l-.15.24-.21.31c-.16.22.29-.3-.05.06-.18.18-.34.36-.53.54l-.33.29c-.07.07-.2.17-.05,0-.23.18-.47.34-.71.5a12.56,12.56,0,0,1-1.74.92,11.2,11.2,0,0,1-3.45.8c-.34,0-.66,0-1,0-.14,0-.26,0-.06,0l-.43-.08-.32-.09c-.17,0-.32-.12-.07,0a3.59,3.59,0,0,1-.63-.37A1.9,1.9,0,0,0,12,38a1.92,1.92,0,0,0,.68,2.57,7,7,0,0,0,4.18,1.07,14.17,14.17,0,0,0,5.36-1.23c2.44-1,5.25-3,5.86-5.77a1.92,1.92,0,0,0-1.31-2.31,1.89,1.89,0,0,0-2.3,1.31Z" transform="translate(-1.11 -4.04)"/><path class="cls-2" d="M29.27,18.14A14.31,14.31,0,0,0,20.06,4.91,14.16,14.16,0,0,0,4.35,9.11,14.25,14.25,0,0,0,3.06,25.34,14.25,14.25,0,0,0,17.85,32,14.23,14.23,0,0,0,29.27,18.14c0-2.42-3.71-2.42-3.75,0A10.35,10.35,0,0,1,7.11,24.63,10.36,10.36,0,0,1,17,7.94a10.47,10.47,0,0,1,8.5,10.2C25.56,20.55,29.31,20.55,29.27,18.14Z" transform="translate(-1.11 -4.04)"/><line class="cls-3" x1="16.68" y1="18.92" x2="16.68" y2="9.26"/><path class="cls-3" d="M12.57,13.31" transform="translate(-1.11 -4.04)"/><line class="cls-3" x1="11.45" y1="18.92" x2="11.45" y2="9.26"/><text class="cls-4" transform="translate(27.8 37.02)">*</text></svg>